<?xml version="1.0" encoding="UTF-8" standalone="no"?>
<!-- Created with Inkscape (http://www.inkscape.org/) -->

<svg
   width="4.4979167mm"
   height="5.2916665mm"
   viewBox="0 0 4.4979167 5.2916666"
   version="1.1"
   id="svg1"
   inkscape:version="1.3.2 (091e20e, 2023-11-25, custom)"
   sodipodi:docname="sadaddsds1111.svg"
   xmlns:inkscape="http://www.inkscape.org/namespaces/inkscape"
   xmlns:sodipodi="http://sodipodi.sourceforge.net/DTD/sodipodi-0.dtd"
   xmlns="http://www.w3.org/2000/svg"
   xmlns:svg="http://www.w3.org/2000/svg">
  <sodipodi:namedview
     id="namedview1"
     pagecolor="#ffffff"
     bordercolor="#000000"
     borderopacity="0.25"
     inkscape:showpageshadow="2"
     inkscape:pageopacity="0.0"
     inkscape:pagecheckerboard="0"
     inkscape:deskcolor="#d1d1d1"
     inkscape:document-units="mm"
     inkscape:zoom="15.662534"
     inkscape:cx="0.63846628"
     inkscape:cy="15.99358"
     inkscape:window-width="1920"
     inkscape:window-height="991"
     inkscape:window-x="-9"
     inkscape:window-y="-9"
     inkscape:window-maximized="1"
     inkscape:current-layer="layer1" />
  <defs
     id="defs1" />
  <g
     inkscape:label="Layer 1"
     inkscape:groupmode="layer"
     id="layer1">
    <g
       id="g670-3-6"
       transform="matrix(0.02047438,0,0,0.02047438,2.9688389,16.385722)">
      <g
         id="g663-9-4"
         transform="matrix(2.4691221,0,0,2.4691221,-819.67526,-858.77465)" />
      <g
         id="g669-8-0"
         style="fill:#567566;fill-opacity:1">
        <g
           id="g664-2-2">
          <rect
             style="fill:none;stroke:#1f2d28;stroke-width:6.92482;stroke-dasharray:none;stroke-opacity:1"
             id="rect663-1-7"
             width="43.450588"
             height="70.600372"
             x="296.00565"
             y="27.143311"
             ry="22.163527"
             transform="matrix(2.469122,0,0,2.469122,-819.67527,-858.77459)" />
          <path
             style="fill:#567566;fill-opacity:1;stroke:#1f2d28;stroke-width:7;stroke-dasharray:none;stroke-opacity:1"
             d="m 302.91469,112.10649 12.60764,10.13264 4.36189,3.32817"
             id="path663-4-0"
             sodipodi:nodetypes="ccc"
             transform="matrix(2.4691221,0,0,2.4691221,-819.67525,-858.77466)" />
          <path
             style="fill:#567566;fill-opacity:1;stroke:#1f2d28;stroke-width:7;stroke-dasharray:none;stroke-opacity:1"
             d="m 332.40514,112.10649 -12.52496,10.09957 -4.28949,3.4089"
             id="path664-2-5"
             sodipodi:nodetypes="ccc"
             transform="matrix(2.4691221,0,0,2.4691221,-819.67525,-858.77466)" />
        </g>
        <path
           style="fill:#567566;fill-opacity:1;stroke:none;stroke-width:7;stroke-dasharray:none"
           id="path665-2-1"
           sodipodi:type="arc"
           sodipodi:cx="298.97208"
           sodipodi:cy="110.79888"
           sodipodi:rx="0.0043848902"
           sodipodi:ry="0.013154672"
           sodipodi:start="0"
           sodipodi:end="0.16626079"
           sodipodi:arc-type="slice"
           d="m 298.97646,110.79888 a 0.00438489,0.01315467 0 0 1 -6e-5,0.002 l -0.004,-0.002 z"
           transform="matrix(2.4691221,0,0,2.4691221,-819.67525,-858.77466)" />
        <g
           id="g668-6-6"
           style="fill:#e7ecea;fill-opacity:1">
          <rect
             style="fill:#1f2d28;fill-opacity:1;stroke:none;stroke-width:2.04091;stroke-dasharray:none"
             id="rect665-6-1"
             width="5.6594319"
             height="11.809972"
             x="314.9404"
             y="41.533684"
             ry="2.8981526"
             transform="matrix(2.469122,0,0,2.469122,-819.67526,-858.77459)" />
          <path
             style="fill:#1f2d28;fill-opacity:1;stroke:none;stroke-width:6.78622;stroke-dasharray:none"
             id="path666-0-9"
             sodipodi:type="arc"
             sodipodi:cx="-91.493607"
             sodipodi:cy="-307.02423"
             sodipodi:rx="3.5000901"
             sodipodi:ry="3.528249"
             sodipodi:start="0"
             sodipodi:end="3.1598555"
             sodipodi:arc-type="slice"
             d="m -87.993516,-307.02423 a 3.5000901,3.528249 0 0 1 -1.76853,3.06623 3.5000901,3.528249 0 0 1 -3.51838,-0.0324 3.5000901,3.528249 0 0 1 -1.712687,-3.09828 l 3.499506,0.0644 z"
             transform="matrix(-1.5370968,1.9323295,-1.9782193,-1.4775698,-819.67525,-858.77466)" />
          <path
             style="fill:#1f2d28;fill-opacity:1;stroke:none;stroke-width:6.78622;stroke-dasharray:none"
             id="path667-6-2"
             sodipodi:type="arc"
             sodipodi:cx="288.87039"
             sodipodi:cy="190.44348"
             sodipodi:rx="3.5000901"
             sodipodi:ry="3.528249"
             sodipodi:start="0"
             sodipodi:end="3.1598555"
             sodipodi:arc-type="slice"
             d="m 292.37048,190.44348 a 3.5000901,3.528249 0 0 1 -1.76853,3.06624 3.5000901,3.528249 0 0 1 -3.51838,-0.0324 3.5000901,3.528249 0 0 1 -1.71268,-3.09828 l 3.4995,0.0644 z"
             transform="matrix(1.5370968,1.9323295,1.9782193,-1.4775698,-819.67525,-858.77466)" />
          <path
             style="fill:#1f2d28;fill-opacity:1;stroke-width:0.264583"
             d="m -4.8496622,-587.38248 1.3824247,-1.64671 9.9654538,11.56731 -0.6088311,1.52564 -5.4163881,-2.3365 z"
             id="path668-3-1" />
        </g>
      </g>
    </g>
  </g>
</svg>
