<?xml version="1.0" encoding="UTF-8" standalone="no"?>
<!-- Created with Inkscape (http://www.inkscape.org/) -->

<svg
   width="37.785809mm"
   height="31.74976mm"
   viewBox="0 0 37.785809 31.74976"
   version="1.1"
   id="svg1"
   inkscape:version="1.3.2 (091e20e, 2023-11-25, custom)"
   sodipodi:docname="h1.svg"
   xmlns:inkscape="http://www.inkscape.org/namespaces/inkscape"
   xmlns:sodipodi="http://sodipodi.sourceforge.net/DTD/sodipodi-0.dtd"
   xmlns="http://www.w3.org/2000/svg"
   xmlns:svg="http://www.w3.org/2000/svg">
  <sodipodi:namedview
     id="namedview1"
     pagecolor="#ffffff"
     bordercolor="#000000"
     borderopacity="0.25"
     inkscape:showpageshadow="2"
     inkscape:pageopacity="0.0"
     inkscape:pagecheckerboard="0"
     inkscape:deskcolor="#d1d1d1"
     inkscape:document-units="mm"
     showguides="true"
     inkscape:zoom="1.4142136"
     inkscape:cx="129.40054"
     inkscape:cy="-58.689863"
     inkscape:window-width="1920"
     inkscape:window-height="991"
     inkscape:window-x="-9"
     inkscape:window-y="-9"
     inkscape:window-maximized="1"
     inkscape:current-layer="layer1">
    <sodipodi:guide
       position="37.785807,8.8923919e-07"
       orientation="1,0"
       id="guide2"
       inkscape:locked="false" />
    <sodipodi:guide
       position="40.829437,8.8923916e-07"
       orientation="0,-1"
       id="guide3"
       inkscape:locked="false" />
  </sodipodi:namedview>
  <defs
     id="defs1">
    <clipPath
       clipPathUnits="userSpaceOnUse"
       id="clipPath251">
      <rect
         style="fill:#808080;fill-opacity:1;stroke:none;stroke-width:0.153987;stroke-dasharray:none"
         id="rect251"
         width="42.398968"
         height="8.997756"
         x="3212.1721"
         y="-366.95102"
         ry="4.498878"
         transform="scale(1,-1)" />
    </clipPath>
  </defs>
  <g
     inkscape:label="Layer 1"
     inkscape:groupmode="layer"
     id="layer1">
    <g
       id="g413"
       transform="translate(-3750.3981,623.9679)"
       inkscape:transform-center-x="3.3675961"
       inkscape:transform-center-y="-2.2450641">
      <g
         id="g412"
         transform="matrix(0.72852483,0,0,0.72852483,1162.1269,-90.947037)">
        <g
           id="g411"
           transform="matrix(0.49846914,0,0,0.49846914,2136.1522,-835.51208)">
          <g
             id="g397"
             transform="translate(0,-5.9868374)">
            <g
               id="g396">
              <rect
                 style="fill:#567566;fill-opacity:1;stroke:none;stroke-width:0.129448;stroke-dasharray:none"
                 id="rect394"
                 width="7.2098956"
                 height="19.951063"
                 x="2854.0234"
                 y="221.37233"
                 ry="1.655" />
              <rect
                 style="fill:#2e4a3e;fill-opacity:1;stroke:none;stroke-width:0.150485;stroke-dasharray:none"
                 id="rect395"
                 width="7.2098956"
                 height="26.962521"
                 x="2866.1375"
                 y="214.36087"
                 ry="1.655" />
              <rect
                 style="fill:#93ada0;fill-opacity:1;stroke:none;stroke-width:0.1;stroke-dasharray:none"
                 id="rect396"
                 width="7.2098956"
                 height="11.90625"
                 x="2841.9094"
                 y="229.41714"
                 ry="1.655" />
            </g>
          </g>
          <g
             id="g403"
             style="fill:#2e4a3e;fill-opacity:1">
            <circle
               style="fill:#2e4a3e;fill-opacity:1;stroke:none;stroke-width:0.1;stroke-dasharray:none"
               id="circle397"
               cx="2844.9753"
               cy="250.69882"
               r="3.0401909" />
            <circle
               style="fill:#2e4a3e;fill-opacity:1;stroke:none;stroke-width:0.1;stroke-dasharray:none"
               id="circle398"
               cx="2845.0337"
               cy="266.5195"
               r="3.0401909" />
            <circle
               style="fill:#2e4a3e;fill-opacity:1;stroke:none;stroke-width:0.1;stroke-dasharray:none"
               id="circle399"
               cx="2852.9763"
               cy="279.97336"
               r="3.0401909" />
            <rect
               style="fill:#2e4a3e;fill-opacity:1;stroke:none;stroke-width:0.107202;stroke-dasharray:none"
               id="rect399"
               width="27.375603"
               height="2.7127855"
               x="2845.3379"
               y="249.2021"
               ry="1.3563927" />
            <rect
               style="fill:#2e4a3e;fill-opacity:1;stroke:none;stroke-width:0.109239;stroke-dasharray:none"
               id="rect400"
               width="28.425669"
               height="2.7127855"
               x="2849.4387"
               y="259.67862"
               ry="1.3563927" />
            <rect
               style="fill:#2e4a3e;fill-opacity:1;stroke:none;stroke-width:0.0626317;stroke-dasharray:none"
               id="rect401"
               width="9.3442993"
               height="2.7127855"
               x="1842.3346"
               y="2182.8403"
               ry="1.3563927"
               transform="rotate(-44.498689)" />
            <rect
               style="fill:#2e4a3e;fill-opacity:1;stroke:none;stroke-width:0.109239;stroke-dasharray:none"
               id="rect402"
               width="28.425669"
               height="2.7127855"
               x="2860.3252"
               y="269.96667"
               ry="1.3563927" />
            <rect
               style="fill:#2e4a3e;fill-opacity:1;stroke:none;stroke-width:0.0626317;stroke-dasharray:none"
               id="rect403"
               width="12.95281"
               height="2.7128906"
               x="1839.2802"
               y="2197.8088"
               ry="1.3563927"
               transform="rotate(-44.498689)" />
          </g>
          <rect
             style="fill:#567566;fill-opacity:1;stroke:none;stroke-width:0.0986731;stroke-dasharray:none"
             id="rect404"
             width="34.284542"
             height="86.92588"
             x="2878.7327"
             y="208.87828"
             ry="1.6476716" />
          <g
             id="g407"
             style="fill:#1f2d28;fill-opacity:1">
            <rect
               style="fill:#2e4a3e;fill-opacity:1;stroke:none;stroke-width:0.298262;stroke-dasharray:none"
               id="rect405"
               width="3.1921258"
               height="77.80838"
               x="2885.2231"
               y="213.63187"
               ry="1.5960629" />
            <rect
               style="fill:#2e4a3e;fill-opacity:1;stroke:none;stroke-width:0.298262;stroke-dasharray:none"
               id="rect406"
               width="3.1921258"
               height="77.80838"
               x="2894.2788"
               y="213.63187"
               ry="1.5960629" />
            <rect
               style="fill:#2e4a3e;fill-opacity:1;stroke:none;stroke-width:0.298262;stroke-dasharray:none"
               id="rect407"
               width="3.1921258"
               height="77.80838"
               x="2903.1118"
               y="213.63187"
               ry="1.5960629" />
          </g>
          <rect
             style="fill:#567566;fill-opacity:1;stroke:none;stroke-width:0.10974;stroke-dasharray:none"
             id="rect408"
             width="53.015884"
             height="48.494572"
             x="2869.1589"
             y="228.03737"
             ry="4.0393739" />
          <rect
             style="fill:#93ada0;fill-opacity:1;stroke:none;stroke-width:0.0839341;stroke-dasharray:none"
             id="rect409"
             width="38.7967"
             height="38.765961"
             x="2876.2686"
             y="232.90167"
             ry="6.3378735" />
          <g
             id="g410"
             transform="translate(2.4501156,24.152823)">
            <path
               d="m 2941.3721,230.05328 h -12.6009 v -12.601 a 12.601001,12.601001 0 0 0 -12.601,12.601 12.601001,12.601001 0 0 0 12.601,12.60101 12.601001,12.601001 0 0 0 12.6009,-12.60101 z"
               style="fill:#2e4a3e;fill-opacity:1;stroke-width:0.0842935"
               id="path409" />
            <path
               d="m 2943.5095,228.32535 a 12.601001,12.601001 0 0 0 -12.6009,-12.60101 v 12.60101 z"
               style="fill:#567566;fill-opacity:1;stroke-width:0.0859575"
               id="path410" />
          </g>
          <text
             xml:space="preserve"
             style="font-style:normal;font-variant:normal;font-weight:500;font-stretch:normal;font-size:28.7098px;font-family:Poppins;-inkscape-font-specification:'Poppins Medium';fill:#e7ecea;fill-opacity:1;stroke:none;stroke-width:0.11456;stroke-dasharray:none"
             x="2881.5522"
             y="262.27567"
             id="text410"><tspan
               sodipodi:role="line"
               id="tspan410"
               style="fill:#e7ecea;fill-opacity:1;stroke-width:0.11456"
               x="2881.5522"
               y="262.27567">AI</tspan></text>
        </g>
      </g>
    </g>
    <g
       id="g393"
       transform="translate(-3835.7297,655.46475)">
      <g
         id="g379"
         transform="translate(123.68313,102.81294)">
        <g
           id="g378"
           transform="translate(282.6699,-1143.4199)">
          <rect
             style="fill:#e7ecea;fill-opacity:1;stroke:none;stroke-width:0.1;stroke-dasharray:none"
             id="rect337"
             width="32.014584"
             height="31.75"
             x="3216.885"
             y="416.63907"
             ry="3.5663681" />
          <g
             id="g353"
             transform="translate(15.209417,56.161824)"
             style="fill:#1f2d28;fill-opacity:1">
            <g
               id="g342"
               transform="translate(0,0.03508915)"
               style="fill:#1f2d28;fill-opacity:1">
              <rect
                 style="fill:#1f2d28;fill-opacity:1;stroke:none;stroke-width:0.143324;stroke-dasharray:none"
                 id="rect338"
                 width="3.4786799"
                 height="0.33909819"
                 x="3228.2209"
                 y="369.68137"
                 ry="0.16954909" />
              <rect
                 style="fill:#1f2d28;fill-opacity:1;stroke:none;stroke-width:0.0972603;stroke-dasharray:none"
                 id="rect339"
                 width="1.6019467"
                 height="0.33909819"
                 x="3225.6719"
                 y="369.68137"
                 ry="0.16954909" />
              <rect
                 style="fill:#1f2d28;fill-opacity:1;stroke:none;stroke-width:0.148529;stroke-dasharray:none"
                 id="rect340"
                 width="3.7359269"
                 height="0.33909819"
                 x="3225.7683"
                 y="371.68088"
                 ry="0.16954909" />
              <rect
                 style="fill:#1f2d28;fill-opacity:1;stroke:none;stroke-width:0.0990193;stroke-dasharray:none"
                 id="rect341"
                 width="1.660412"
                 height="0.33909819"
                 x="3230.0391"
                 y="371.68088"
                 ry="0.16954909" />
              <rect
                 style="fill:#1f2d28;fill-opacity:1;stroke:none;stroke-width:0.148529;stroke-dasharray:none"
                 id="rect342"
                 width="3.7359269"
                 height="0.33909819"
                 x="3225.7683"
                 y="373.61023"
                 ry="0.16954909" />
            </g>
            <g
               id="g347"
               transform="translate(0,7.7232605)"
               style="fill:#1f2d28;fill-opacity:1">
              <rect
                 style="fill:#1f2d28;fill-opacity:1;stroke:none;stroke-width:0.143324;stroke-dasharray:none"
                 id="rect343"
                 width="3.4786799"
                 height="0.33909819"
                 x="3228.2209"
                 y="369.68137"
                 ry="0.16954909" />
              <rect
                 style="fill:#1f2d28;fill-opacity:1;stroke:none;stroke-width:0.0972603;stroke-dasharray:none"
                 id="rect344"
                 width="1.6019467"
                 height="0.33909819"
                 x="3225.6719"
                 y="369.68137"
                 ry="0.16954909" />
              <rect
                 style="fill:#1f2d28;fill-opacity:1;stroke:none;stroke-width:0.148529;stroke-dasharray:none"
                 id="rect345"
                 width="3.7359269"
                 height="0.33909819"
                 x="3225.7683"
                 y="371.68088"
                 ry="0.16954909" />
              <rect
                 style="fill:#1f2d28;fill-opacity:1;stroke:none;stroke-width:0.0990193;stroke-dasharray:none"
                 id="rect346"
                 width="1.660412"
                 height="0.33909819"
                 x="3230.0391"
                 y="371.68088"
                 ry="0.16954909" />
              <rect
                 style="fill:#1f2d28;fill-opacity:1;stroke:none;stroke-width:0.148529;stroke-dasharray:none"
                 id="rect347"
                 width="3.7359269"
                 height="0.33909819"
                 x="3225.7683"
                 y="373.61023"
                 ry="0.16954909" />
            </g>
            <g
               id="g352"
               transform="translate(0,15.750534)"
               style="fill:#1f2d28;fill-opacity:1">
              <rect
                 style="fill:#1f2d28;fill-opacity:1;stroke:none;stroke-width:0.143324;stroke-dasharray:none"
                 id="rect348"
                 width="3.4786799"
                 height="0.33909819"
                 x="3228.2209"
                 y="369.68137"
                 ry="0.16954909" />
              <rect
                 style="fill:#1f2d28;fill-opacity:1;stroke:none;stroke-width:0.0972603;stroke-dasharray:none"
                 id="rect349"
                 width="1.6019467"
                 height="0.33909819"
                 x="3225.6719"
                 y="369.68137"
                 ry="0.16954909" />
              <rect
                 style="fill:#1f2d28;fill-opacity:1;stroke:none;stroke-width:0.148529;stroke-dasharray:none"
                 id="rect350"
                 width="3.7359269"
                 height="0.33909819"
                 x="3225.7683"
                 y="371.68088"
                 ry="0.16954909" />
              <rect
                 style="fill:#1f2d28;fill-opacity:1;stroke:none;stroke-width:0.0990193;stroke-dasharray:none"
                 id="rect351"
                 width="1.660412"
                 height="0.33909819"
                 x="3230.0391"
                 y="371.68088"
                 ry="0.16954909" />
              <rect
                 style="fill:#1f2d28;fill-opacity:1;stroke:none;stroke-width:0.148529;stroke-dasharray:none"
                 id="rect352"
                 width="3.7359269"
                 height="0.33909819"
                 x="3225.7683"
                 y="373.61023"
                 ry="0.16954909" />
            </g>
          </g>
          <rect
             style="fill:#567566;fill-opacity:1;stroke:none;stroke-width:0.1;stroke-dasharray:none"
             id="rect353"
             width="32.014584"
             height="31.75"
             x="3216.885"
             y="360.54739"
             ry="3.5663681"
             clip-path="url(#clipPath251)"
             transform="translate(0,56.091666)" />
          <circle
             style="fill:#e7ecea;fill-opacity:1;stroke:none;stroke-width:0.1;stroke-dasharray:none"
             id="circle353"
             cx="3220.7566"
             cy="419.94336"
             r="0.95911455" />
          <circle
             style="fill:#e7ecea;fill-opacity:1;stroke:none;stroke-width:0.1;stroke-dasharray:none"
             id="circle354"
             cx="3224.2788"
             cy="419.94336"
             r="0.95911455" />
          <circle
             style="fill:#e7ecea;fill-opacity:1;stroke:none;stroke-width:0.1;stroke-dasharray:none"
             id="circle355"
             cx="3227.801"
             cy="419.94336"
             r="0.95911455" />
          <rect
             style="fill:#e7ecea;fill-opacity:1;stroke:none;stroke-width:0.1;stroke-dasharray:none"
             id="rect355"
             width="11.201935"
             height="1.918229"
             x="3234.5759"
             y="418.98425"
             ry="0.95911449" />
          <rect
             style="fill:#46584f;fill-opacity:1;stroke:none;stroke-width:0.1;stroke-dasharray:none"
             id="rect356"
             width="5.285255"
             height="6.0219169"
             x="3218.9775"
             y="424.93115"
             ry="1.2453156" />
          <rect
             style="fill:#567566;fill-opacity:1;stroke:none;stroke-width:0.1;stroke-dasharray:none"
             id="rect357"
             width="5.285255"
             height="6.0219169"
             x="3218.9775"
             y="432.61932"
             ry="1.2453156" />
          <rect
             style="fill:#93ada0;fill-opacity:1;stroke:none;stroke-width:0.1;stroke-dasharray:none"
             id="rect358"
             width="5.285255"
             height="6.0219169"
             x="3218.9775"
             y="440.47705"
             ry="1.2453156" />
          <rect
             style="fill:#93ada0;fill-opacity:1;stroke:none;stroke-width:0.1;stroke-dasharray:none"
             id="rect359"
             width="5.285255"
             height="6.0219169"
             x="3233.9446"
             y="424.93115"
             ry="1.2453156" />
          <rect
             style="fill:#46584f;fill-opacity:1;stroke:none;stroke-width:0.1;stroke-dasharray:none"
             id="rect360"
             width="5.285255"
             height="6.0219169"
             x="3233.9446"
             y="432.61932"
             ry="1.2453156" />
          <rect
             style="fill:#567566;fill-opacity:1;stroke:none;stroke-width:0.1;stroke-dasharray:none"
             id="rect361"
             width="5.285255"
             height="6.0219169"
             x="3233.9446"
             y="440.47705"
             ry="1.2453156" />
          <g
             id="g377"
             transform="translate(0,56.091666)"
             style="fill:#1f2d28;fill-opacity:1">
            <g
               id="g366"
               transform="translate(0,0.03508915)"
               style="fill:#1f2d28;fill-opacity:1">
              <rect
                 style="fill:#1f2d28;fill-opacity:1;stroke:none;stroke-width:0.143324;stroke-dasharray:none"
                 id="rect362"
                 width="3.4786799"
                 height="0.33909819"
                 x="3228.2209"
                 y="369.68137"
                 ry="0.16954909" />
              <rect
                 style="fill:#1f2d28;fill-opacity:1;stroke:none;stroke-width:0.0972603;stroke-dasharray:none"
                 id="rect363"
                 width="1.6019467"
                 height="0.33909819"
                 x="3225.6719"
                 y="369.68137"
                 ry="0.16954909" />
              <rect
                 style="fill:#1f2d28;fill-opacity:1;stroke:none;stroke-width:0.148529;stroke-dasharray:none"
                 id="rect364"
                 width="3.7359269"
                 height="0.33909819"
                 x="3225.7683"
                 y="371.68088"
                 ry="0.16954909" />
              <rect
                 style="fill:#1f2d28;fill-opacity:1;stroke:none;stroke-width:0.0990193;stroke-dasharray:none"
                 id="rect365"
                 width="1.660412"
                 height="0.33909819"
                 x="3230.0391"
                 y="371.68088"
                 ry="0.16954909" />
              <rect
                 style="fill:#1f2d28;fill-opacity:1;stroke:none;stroke-width:0.148529;stroke-dasharray:none"
                 id="rect366"
                 width="3.7359269"
                 height="0.33909819"
                 x="3225.7683"
                 y="373.61023"
                 ry="0.16954909" />
            </g>
            <g
               id="g371"
               transform="translate(0,7.7232605)"
               style="fill:#1f2d28;fill-opacity:1">
              <rect
                 style="fill:#1f2d28;fill-opacity:1;stroke:none;stroke-width:0.143324;stroke-dasharray:none"
                 id="rect367"
                 width="3.4786799"
                 height="0.33909819"
                 x="3228.2209"
                 y="369.68137"
                 ry="0.16954909" />
              <rect
                 style="fill:#1f2d28;fill-opacity:1;stroke:none;stroke-width:0.0972603;stroke-dasharray:none"
                 id="rect368"
                 width="1.6019467"
                 height="0.33909819"
                 x="3225.6719"
                 y="369.68137"
                 ry="0.16954909" />
              <rect
                 style="fill:#1f2d28;fill-opacity:1;stroke:none;stroke-width:0.148529;stroke-dasharray:none"
                 id="rect369"
                 width="3.7359269"
                 height="0.33909819"
                 x="3225.7683"
                 y="371.68088"
                 ry="0.16954909" />
              <rect
                 style="fill:#1f2d28;fill-opacity:1;stroke:none;stroke-width:0.0990193;stroke-dasharray:none"
                 id="rect370"
                 width="1.660412"
                 height="0.33909819"
                 x="3230.0391"
                 y="371.68088"
                 ry="0.16954909" />
              <rect
                 style="fill:#1f2d28;fill-opacity:1;stroke:none;stroke-width:0.148529;stroke-dasharray:none"
                 id="rect371"
                 width="3.7359269"
                 height="0.33909819"
                 x="3225.7683"
                 y="373.61023"
                 ry="0.16954909" />
            </g>
            <g
               id="g376"
               transform="translate(0,15.750534)"
               style="fill:#1f2d28;fill-opacity:1">
              <rect
                 style="fill:#1f2d28;fill-opacity:1;stroke:none;stroke-width:0.143324;stroke-dasharray:none"
                 id="rect372"
                 width="3.4786799"
                 height="0.33909819"
                 x="3228.2209"
                 y="369.68137"
                 ry="0.16954909" />
              <rect
                 style="fill:#1f2d28;fill-opacity:1;stroke:none;stroke-width:0.0972603;stroke-dasharray:none"
                 id="rect373"
                 width="1.6019467"
                 height="0.33909819"
                 x="3225.6719"
                 y="369.68137"
                 ry="0.16954909" />
              <rect
                 style="fill:#1f2d28;fill-opacity:1;stroke:none;stroke-width:0.148529;stroke-dasharray:none"
                 id="rect374"
                 width="3.7359269"
                 height="0.33909819"
                 x="3225.7683"
                 y="371.68088"
                 ry="0.16954909" />
              <rect
                 style="fill:#1f2d28;fill-opacity:1;stroke:none;stroke-width:0.0990193;stroke-dasharray:none"
                 id="rect375"
                 width="1.660412"
                 height="0.33909819"
                 x="3230.0391"
                 y="371.68088"
                 ry="0.16954909" />
              <rect
                 style="fill:#1f2d28;fill-opacity:1;stroke:none;stroke-width:0.148529;stroke-dasharray:none"
                 id="rect376"
                 width="3.7359269"
                 height="0.33909819"
                 x="3225.7683"
                 y="373.61023"
                 ry="0.16954909" />
            </g>
          </g>
        </g>
      </g>
    </g>
    <g
       id="g392"
       transform="translate(-3502.9506,623.96776)">
      <g
         id="g335"
         transform="matrix(0.39649938,0,0,0.39649938,2262.922,-330.75659)">
        <g
           id="g336"
           transform="matrix(1.6518199,0,0,1.6518199,-2156.4629,475.61911)">
          <path
             d="m 3338.8277,-715.38455 a 10.177343,10.164183 0 0 1 -5.0239,-8.69457 10.177343,10.164183 0 0 1 0.539,-3.07162 h -36.3813 c -0.7287,0 -1.3153,0.58665 -1.3153,1.3153 v 25.38534 c 0,0.72865 0.5866,1.3153 1.3153,1.3153 h 39.5509 c 0.7287,0 1.3153,-0.58665 1.3153,-1.3153 z"
             style="fill:none;stroke-width:0.0433647"
             id="path199" />
          <path
             d="m 3344.8674,-733.39463 c -5.1448,10e-6 -9.3155,4.17071 -9.3155,9.31551 0,5.14481 4.1707,9.3155 9.3155,9.31551 5.1448,-10e-6 9.3155,-4.1707 9.3155,-9.31551 0,-1.33907 -0.2847,-2.61098 -0.7934,-3.76171 0.017,0.0403 0.033,0.0807 0.052,0.12013 l -1.8044,-0.28484 -0.8121,0.70957 c 0.5177,0.95688 0.8121,2.0525 0.8121,3.21685 0,3.73884 -3.031,6.76978 -6.7698,6.7698 -3.7388,-2e-5 -6.7698,-3.03096 -6.7698,-6.7698 0,-3.73884 3.031,-6.76978 6.7698,-6.76979 1.1415,0 2.2165,0.28373 3.16,0.78272 l 0.7061,-0.85107 -0.2459,-1.7451 c 0,3e-5 0.01,2.2e-4 0.01,2.6e-4 -1.1147,-0.47168 -2.3405,-0.73253 -3.6271,-0.73253 z"
             style="fill:#2f4b40;fill-opacity:1;stroke-width:0.203234"
             id="path179" />
          <path
             d="m 3344.8674,-728.73033 c -2.5688,10e-6 -4.6512,2.08243 -4.6512,4.65121 0,2.56879 2.0824,4.6512 4.6512,4.65122 2.5688,-2e-5 4.6512,-2.08243 4.6512,-4.65122 0,-0.62686 -0.1246,-1.22446 -0.3494,-1.7702 l -1.5837,1.38365 -0.032,-0.032 c 0.021,0.13643 0.032,0.27625 0.032,0.41859 0,1.50118 -1.2169,2.71812 -2.7181,2.71817 -1.5012,-5e-5 -2.7182,-1.21699 -2.7182,-2.71817 -10e-5,-1.50129 1.2169,-2.71839 2.7182,-2.71844 0.1432,0 0.2838,0.0112 0.421,0.0326 l 1.3428,-1.61831 c -0.544,-0.22318 -1.1394,-0.34704 -1.7638,-0.34704 z"
             style="fill:#2f4b40;fill-opacity:1;stroke-width:0.101474"
             id="path177" />
          <g
             id="g174"
             style="fill:#2f4b40;fill-opacity:1"
             transform="matrix(-0.02235873,-0.51611191,-0.51611191,0.02235873,3547.4153,1374.9864)">
            <rect
               style="fill:#2f4b40;fill-opacity:1;stroke:none;stroke-width:0.1;stroke-dasharray:none"
               id="rect169"
               width="23.927893"
               height="2.9348145"
               x="2742.415"
               y="3019.5283"
               ry="1.3499131"
               transform="matrix(0.67241518,-0.7401742,-0.7401742,-0.67241518,4467.6867,4277.9839)" />
            <g
               id="g171"
               style="fill:#2f4b40;fill-opacity:1"
               transform="matrix(-0.04328088,-0.99906296,-0.99906296,0.04328088,4467.6867,4277.9839)">
              <path
                 style="fill:#2f4b40;fill-opacity:1;stroke:none;stroke-width:0.1;stroke-dasharray:none"
                 d="m 4086.2424,202.07157 -0.5416,-5.09059 3.6833,-3.74177 2.1748,0.54957 0.842,4.67801 -4.4318,4.25547 z"
                 id="path170" />
              <path
                 style="fill:#2f4b40;fill-opacity:1;stroke:none;stroke-width:0.105957;stroke-dasharray:none"
                 id="path171"
                 sodipodi:type="arc"
                 sodipodi:cx="-3762.3398"
                 sodipodi:cy="1550.9089"
                 sodipodi:rx="1.1886816"
                 sodipodi:ry="1.1716003"
                 sodipodi:start="0"
                 sodipodi:end="3.1527654"
                 sodipodi:open="true"
                 sodipodi:arc-type="arc"
                 d="m -3761.1512,1550.9089 a 1.1886816,1.1716003 0 0 1 -0.5981,1.0168 1.1886816,1.1716003 0 0 1 -1.1925,-0.01 1.1886816,1.1716003 0 0 1 -0.5867,-1.0234"
                 transform="matrix(-0.90656078,-0.4220753,0.43818162,-0.89888646,0,0)" />
            </g>
            <path
               style="fill:#2f4b40;fill-opacity:1;stroke:none;stroke-width:0.1;stroke-dasharray:none"
               d="m 4086.8836,202.28276 -1.1828,-5.30178 3.6833,-3.74177 2.1748,0.54957 0.842,4.67801 -3.815,5.00113 z"
               id="path172"
               sodipodi:nodetypes="ccccccc" />
            <path
               style="fill:#2f4b40;fill-opacity:1;stroke:none;stroke-width:0.105957;stroke-dasharray:none"
               id="path173"
               sodipodi:type="arc"
               sodipodi:cx="-3762.3398"
               sodipodi:cy="1550.9089"
               sodipodi:rx="1.1886816"
               sodipodi:ry="1.1716003"
               sodipodi:start="0"
               sodipodi:end="3.1527654"
               sodipodi:open="true"
               sodipodi:arc-type="arc"
               d="m -3761.1512,1550.9089 a 1.1886816,1.1716003 0 0 1 -0.5981,1.0168 1.1886816,1.1716003 0 0 1 -1.1925,-0.01 1.1886816,1.1716003 0 0 1 -0.5867,-1.0234"
               transform="matrix(-0.90656078,-0.4220753,0.43818162,-0.89888646,0,0)" />
          </g>
          <rect
             style="fill:#46584f;fill-opacity:1;stroke:none;stroke-width:0.0525683;stroke-dasharray:none"
             id="rect179"
             width="4.8522353"
             height="5.4843922"
             x="3303.8726"
             y="-707.38702"
             ry="0.72220117" />
          <rect
             style="fill:#46584f;fill-opacity:1;stroke:none;stroke-width:0.0525683;stroke-dasharray:none"
             id="rect180"
             width="4.8522944"
             height="11.041719"
             x="3311.0486"
             y="-712.94434"
             ry="0.72220117" />
          <rect
             style="fill:#46584f;fill-opacity:1;stroke:none;stroke-width:0.044057;stroke-dasharray:none"
             id="rect181"
             width="4.8522944"
             height="7.7556443"
             x="3318.2249"
             y="-709.65826"
             ry="0.72220117" />
          <rect
             style="fill:#46584f;fill-opacity:1;stroke:none;stroke-width:0.0598817;stroke-dasharray:none"
             id="rect182"
             width="4.8522944"
             height="14.327794"
             x="3325.6428"
             y="-716.23047"
             ry="0.72220117" />
          <path
             d="m 3341.3065,-714.31325 a 10.177343,10.164183 0 0 1 -2.4787,-1.07131 v 14.93446 c 0,0.72865 -0.5867,1.3153 -1.3153,1.3153 h -39.551 c -0.7286,0 -1.3153,-0.58665 -1.3153,-1.3153 v -25.38534 c 0,-0.72865 0.5867,-1.31531 1.3153,-1.31531 h 36.3813 a 10.177343,10.164183 0 0 1 1.0935,-2.33081 h -37.2393 c -2.2323,0 -4.0295,1.79716 -4.0295,4.02947 v 27.49458 c 0,2.23231 1.7972,4.02946 4.0295,4.02946 h 39.08 c 2.2323,0 4.0295,-1.79715 4.0295,-4.02946 z"
             style="fill:#567566;fill-opacity:1;stroke-width:0.051642"
             id="path197" />
          <rect
             style="fill:#567566;fill-opacity:1;stroke:none;stroke-width:0.0516596;stroke-dasharray:none"
             id="rect183"
             width="22.108517"
             height="2.2470951"
             x="3306.8296"
             y="-689.39423"
             ry="1.1235476" />
          <path
             style="fill:#567566;fill-opacity:1;stroke:none;stroke-width:0.0516596;stroke-dasharray:none"
             d="m 3313.7401,-695.21732 -1.9329,6.57216 12.1535,0.37451 -0.1873,-0.71279 -1.7868,-6.36269 z"
             id="path183" />
          <g
             id="g189"
             transform="matrix(0.35172201,-0.37836892,0.37836892,0.35172201,1712.2362,837.90142)"
             style="fill:#46584f;fill-opacity:1">
            <g
               id="g193"
               transform="rotate(3.0391819,4345.3608,218.42931)"
               style="fill:#46584f;fill-opacity:1">
              <rect
                 style="fill:#46584f;fill-opacity:1;stroke:none;stroke-width:0.0979359;stroke-dasharray:none"
                 id="rect187"
                 width="27.898438"
                 height="3.7165852"
                 x="4292.2031"
                 y="217.17743"
                 ry="1.8582926" />
              <rect
                 style="fill:#46584f;fill-opacity:1;stroke:none;stroke-width:0.0984256;stroke-dasharray:none"
                 id="rect188"
                 width="28.178125"
                 height="3.7165852"
                 x="4316.3848"
                 y="233.78156"
                 ry="1.8582926" />
              <rect
                 style="fill:#46584f;fill-opacity:1;stroke:none;stroke-width:0.100323;stroke-dasharray:none"
                 id="rect189"
                 width="20.128094"
                 height="3.7167969"
                 x="217.29797"
                 y="-4320.1016"
                 ry="1.8467054"
                 transform="rotate(90)" />
            </g>
          </g>
          <path
             d="m 3325.3654,-723.23337 c 1.0873,1.12706 2.9814,3.08335 3.9901,4.12442 l 0.3605,0.0107 c 0.3624,0.0107 0.6627,-0.27226 0.6732,-0.63489 l 0.1055,-3.55914 c 0.011,-0.3624 -0.2722,-0.66269 -0.6346,-0.67344 l -3.8153,-0.11312 c -0.3624,-0.0108 -0.6627,0.27223 -0.6732,0.63489 z"
             style="fill:#46584f;fill-opacity:1;stroke-width:0.0516596"
             id="path192" />
        </g>
      </g>
    </g>
    <g
       id="g394"
       transform="translate(-3835.7297,655.46475)">
      <g
         id="g391"
         transform="matrix(0.37793781,0,0,0.37793781,2646.0457,-653.16643)">
        <rect
           style="opacity:1;fill:#567566;fill-opacity:1;stroke:none;stroke-width:0.101813;stroke-dasharray:none"
           id="rect381"
           width="88.961334"
           height="69.543457"
           x="2754.2505"
           y="77.257492"
           ry="7.5964355" />
        <rect
           style="opacity:1;fill:#e7ecea;fill-opacity:1;stroke:none;stroke-width:0.0814315;stroke-dasharray:none"
           id="rect382"
           width="76.491646"
           height="51.739536"
           x="2760.4851"
           y="84.076645"
           ry="3.4226863" />
        <g
           id="g383"
           style="fill:#567566;fill-opacity:1"
           transform="translate(-158.80725,453.82536)">
          <rect
             style="fill:#567566;fill-opacity:1;stroke:none;stroke-width:0.102035;stroke-dasharray:none"
             id="rect383"
             width="43.667564"
             height="4.4383426"
             x="2935.7048"
             y="-296.99768"
             ry="2.2191713" />
          <path
             style="fill:#567566;fill-opacity:1;stroke:none;stroke-width:0.102035;stroke-dasharray:none"
             d="m 2949.354,-308.49922 -3.8178,12.98103 24.005,0.73966 -0.3699,-1.40788 -3.5292,-12.56718 z"
             id="path383" />
        </g>
        <rect
           style="opacity:1;fill:#567566;fill-opacity:1;stroke:none;stroke-width:0.0999356;stroke-dasharray:none"
           id="rect384"
           width="25.894642"
           height="19.211855"
           x="2770.1758"
           y="93.253067"
           ry="2.138" />
        <rect
           style="opacity:1;fill:#93ada0;fill-opacity:1;stroke:none;stroke-width:0.0655137;stroke-dasharray:none"
           id="rect385"
           width="25.894642"
           height="8.2564516"
           x="2770.1758"
           y="118.93941"
           ry="2.138" />
        <rect
           style="opacity:1;fill:#1f2d28;fill-opacity:1;stroke:none;stroke-width:0.0944911;stroke-dasharray:none"
           id="rect386"
           width="19.611206"
           height="2.260844"
           x="2803.533"
           y="98.821182"
           ry="1.130422" />
        <rect
           style="opacity:1;fill:#ff0000;fill-opacity:1;stroke:none;stroke-width:0.079109;stroke-dasharray:none"
           id="rect387"
           width="13.745931"
           height="2.260844"
           x="2804.1531"
           y="106.65017"
           ry="1.130422" />
        <rect
           style="opacity:1;fill:#ff0000;fill-opacity:1;stroke:none;stroke-width:0.079109;stroke-dasharray:none"
           id="rect388"
           width="13.745931"
           height="2.260844"
           x="2804.1531"
           y="106.65017"
           ry="1.130422" />
        <rect
           style="opacity:1;fill:#1f2d28;fill-opacity:1;stroke:none;stroke-width:0.079109;stroke-dasharray:none"
           id="rect389"
           width="13.745931"
           height="2.260844"
           x="2804.1531"
           y="106.65017"
           ry="1.130422" />
        <g
           id="g389"
           transform="translate(-158.88274,455.42733)"
           style="fill:#1f2d28;fill-opacity:1">
          <circle
             style="opacity:1;fill:#1f2d28;fill-opacity:1;stroke:none;stroke-width:0.09653;stroke-dasharray:none"
             id="circle389"
             cx="2979.353"
             cy="-325.50983"
             r="7.9064946" />
          <path
             style="opacity:1;fill:#1f2d28;fill-opacity:1;stroke:none;stroke-width:0.1;stroke-dasharray:none"
             d="m 2973.3594,-330.66622 c -0.3756,0.48694 -0.7584,0.95214 -1.0409,1.46375 -0.5721,1.03616 -0.6394,2.09714 -0.9941,3.10257 -0.9837,2.78914 -1.8902,5.36792 -3.0661,6.21007 -0.6183,0.44284 -1.5249,0.82843 -2.2962,1.18627 -1.336,0.61986 -1.3013,2.34597 1.5572,3.08975 12.493,0.55132 15.3337,-2.09933 17.9104,-4.83756 z"
             id="path389"
             sodipodi:nodetypes="cssssccc" />
        </g>
        <path
           style="opacity:1;fill:#567566;fill-opacity:1;stroke:none;stroke-width:0.1;stroke-dasharray:none"
           d="m 2827.0816,115.50694 7.7833,6.99757 -6.862,5.01097 -5.5163,-5.24301 z"
           id="path390" />
        <path
           style="opacity:1;fill:#1f2d28;fill-opacity:1;stroke:none;stroke-width:0.1;stroke-dasharray:none"
           d="m 2827.0816,115.50694 c 9.5994,-9.7233 19.2049,-19.412031 29.0865,-27.515196 4.0285,-2.29218 5.0391,0.77851 3.8184,2.66748 -6.988,10.235836 -14.803,21.784606 -25.1216,31.845286 z"
           id="path391"
           sodipodi:nodetypes="ccccc" />
      </g>
    </g>
  </g>
</svg>
